# xmcd
#
# Track frame offsets:
#	150
#	11073
#	20495
#	28405
#	37583
#	47724
#	56468
#	64891
#	72713
#	82864
#	93583
#	102558
#	111313
#	121537
#	130752
#	141360
#	151388
#	161724
#	173472
#	185655
#
# Disc length: 2568 seconds
#
# Revision: 0
# Processed by: cddbd v1.5.2PL0 Copyright (c) Steve Scherf et al.
# Submitted via: EZCDAudioConverter 2.0.3.1
#
DISCID=110a0614
DTITLE=Country and Western CD 3
DYEAR=1900
DGENRE=
TTITLE0=Dailey Durwood - East Dallas Dugger
TTITLE1=Pierce Webb - Thousand Miles Ago
TTITLE2=Doll Andy - Wild Desire
TTITLE3=Tillis Mel - It's So Easy
TTITLE4=Page Bobby - Hippy Ti Yo
TTITLE5=Belew Carl - I Wish I Never
TTITLE6=Dean Gabe - Slop And Stroll Jolie Blonde
TTITLE7=Poe Archie - Give Me A Chance On Your Heart
TTITLE8=Frizzell Lefty - So What Let It Rain
TTITLE9=Mathis Johnny - I've Been Known To Cry
TTITLE10=Miller Frankie - Lookin' Around Downtown
TTITLE11=Mack Bill - Long Long Train
TTITLE12=Eanes Jim - Road Walked By Fools
TTITLE13=Young Faron - Backtrack
TTITLE14=Nee Bernie - State Of Happiness
TTITLE15=Brumley Al - I Don't Thrill You Anymore
TTITLE16=Helms Bobby - Hundred Hearts
TTITLE17=Smith Carl - I'll Walk With You
TTITLE18=Noack Eddie - Firewater Luke
TTITLE19=Van Dyke Leroy - One Heart
EXTD=
EXTT0=
EXTT1=
EXTT2=
EXTT3=
EXTT4=
EXTT5=
EXTT6=
EXTT7=
EXTT8=
EXTT9=
EXTT10=
EXTT11=
EXTT12=
EXTT13=
EXTT14=
EXTT15=
EXTT16=
EXTT17=
EXTT18=
EXTT19=
PLAYORDER=
